<svg xmlns="http://www.w3.org/2000/svg" viewBox="0 0 512 512" role="img" aria-label="Dungeon icon">
  <rect width="512" height="512" fill="#f6f5f1" rx="96" />
  <g transform="translate(256 256) scale(0.54) translate(-256 -308)">
    <g transform="translate(0 512) scale(1 -1)">
      <path
        fill="#4a5d4f"
        d="M128.73 252.68c6.58984 -4.12012 8.89941 -12.2393 6.33984 -19.5801c-3 -8.60938 -5.15039 -17.6094 -6.24023 -26.9395c-0.929688 -7.91016 -7.0498 -14.1602 -15.0098 -14.1602h-97.1299c-9.10059 0 -16.7402 7.62988 -16.1504 16.7197c2.0293 31.5166 9.95215 61.9062 22.4502 89.2705c3.93945 8.62012 14.8896 11.4697 22.9297 6.4502zM319.03 440c9.16992 -2.36035 13.9102 -12.5996 10.3896 -21.3896l-37.4697 -104.03c-2.28027 -6.34961 -8.2998 -10.5801 -15.0498 -10.5801h-41.8008c-6.92773 0.00292969 -12.8281 4.41211 -15.0498 10.5801l-37.4697 104.03c-3.52051 8.79004 1.21973 19.04 10.3896 21.3896c20.1699 5.17969 41.2607 8 63.0303 8s42.8604 -2.82031 63.0303 -8zM112 160c8.83984 0 16 -7.16016 16 -16v-64c0 -8.83984 -7.16016 -16 -16 -16h-96c-8.83984 0 -16 7.16016 -16 16v64c0 8.83984 7.16016 16 16 16h96zM112 32c8.83984 0 16 -7.16016 16 -16v-64c0 -8.83984 -7.16016 -16 -16 -16h-96c-8.83984 0 -16 7.16016 -16 16v64c0 8.83984 7.16016 16 16 16h96zM189.31 315.67c2.85059 -7.12012 -0.0195312 -14.8799 -6.2998 -19.29c-6 -4.2002 -11.6094 -8.89941 -16.79 -14.0498c-5.4502 -5.41016 -13.5996 -6.86035 -20.1094 -2.79004l-82.9307 51.8301c-8.06934 5.04004 -10.2793 16.2002 -4.21973 23.5195c20.0459 24.1963 44.0801 44.3428 71.6104 59.8906c8.29004 4.67969 18.8896 0.519531 22.4199 -8.31055zM398.18 192c-7.95996 0 -14.0801 6.25 -15.0098 14.1602c-1.08984 9.32031 -3.22949 18.3301 -6.24023 26.9395c-2.55957 7.34082 -0.25 15.46 6.33984 19.5801l82.8105 51.7607c8.04004 5.01953 18.9902 2.16992 22.9297 -6.4502c12.499 -27.3633 20.4219 -57.7529 22.4502 -89.2705c0.589844 -9.08984 -7.0498 -16.7197 -16.1504 -16.7197h-97.1299zM453.03 354.89c6.06934 -7.31934 3.84961 -18.4795 -4.2207 -23.5098l-82.9297 -51.8301c-6.50977 -4.06934 -14.6699 -2.62012 -20.1104 2.79004c-5.17969 5.15039 -10.7891 9.85059 -16.7891 14.0498c-6.28027 4.40039 -9.15039 12.1602 -6.30078 19.2803l36.3203 90.7998c3.54004 8.83008 14.1396 12.9902 22.4199 8.31055c27.5303 -15.5479 51.5645 -35.6943 71.6104 -59.8906zM496 160c8.83984 0 16 -7.16016 16 -16v-64c0 -8.83984 -7.16016 -16 -16 -16h-96c-8.83984 0 -16 7.16016 -16 16v64c0 8.83984 7.16016 16 16 16h96zM496 32c8.83984 0 16 -7.16016 16 -16v-64c0 -8.83984 -7.16016 -16 -16 -16h-96c-8.83984 0 -16 7.16016 -16 16v64c0 8.83984 7.16016 16 16 16h96zM240 270.38c5.23047 0.889648 10.5195 1.62012 16 1.62012s10.7695 -0.730469 16 -1.62012v-294.38c0 -4.41992 -3.58008 -8 -8 -8h-16c-4.41992 0 -8 3.58008 -8 8v294.38zM176 228.87c8.16016 12.2998 19.2197 22.3203 32 29.7695v-282.64c0 -4.41992 -3.58008 -8 -8 -8h-16c-4.41992 0 -8 3.58008 -8 8v252.87zM304 258.64c12.7803 -7.44922 23.8398 -17.4697 32 -29.7695v-252.87c0 -4.41992 -3.58008 -8 -8 -8h-16c-4.41992 0 -8 3.58008 -8 8v282.64z"
      />
    </g>
  </g>
</svg>
